<svg xmlns="http://www.w3.org/2000/svg" viewBox="0 0 100 100" width="32" height="32">
  <!-- House icon -->
  <path 
    d="M87.8,42.5L55.2,10c-2.4-2.4-5.6-3.7-9-3.7c-3.4,0-6.6,1.3-9,3.7L13.5,33.6c-1.8,1.8-1.8,4.6,0,6.4c1.8,1.8,4.6,1.8,6.4,0
    l23.7-23.7c1.4-1.4,3.9-1.4,5.4,0l32.6,32.6c1,1,1.5,2.2,1.5,3.6v29.9c0,1.3-1,2.3-2.3,2.3H70.5c-2.6,0-4.7-2.1-4.7-4.7V66.1
    c0-6.2-5-11.2-11.2-11.2H42.3c-6.1,0-11,5-11,11v14c0,2.5,2,4.5,4.5,4.5s4.5-2,4.5-4.5V66c0-1.1,0.9-2,2-2h12.3
    c1.2,0,2.2,1,2.2,2.2V80c0,7.6,6.1,13.7,13.7,13.7h10.2c6.2,0,11.3-5.1,11.3-11.3V52.4C91.9,48.7,90.4,45.2,87.8,42.5z"
    fill="#7DD3CF" 
    stroke="none" 
  />
</svg>